<svg xmlns="http://www.w3.org/2000/svg" xmlns:xlink="http://www.w3.org/1999/xlink" viewBox="0 0 452.67 452.67"><defs><style>.cls-1{fill:url(#Unbenannter_Verlauf_21);}.cls-10,.cls-2,.cls-3,.cls-4,.cls-5,.cls-6,.cls-7,.cls-8,.cls-9{fill:none;stroke-width:10px;}.cls-2,.cls-3,.cls-4,.cls-5{stroke-miterlimit:10;}.cls-2{stroke:url(#Unbenannter_Verlauf_33);}.cls-3{stroke:url(#Unbenannter_Verlauf_33-2);}.cls-4{stroke:url(#Unbenannter_Verlauf_33-3);}.cls-5{stroke:url(#Unbenannter_Verlauf_33-4);}.cls-10,.cls-6,.cls-7,.cls-8,.cls-9{stroke-linecap:round;stroke-linejoin:round;}.cls-6{stroke:url(#Unbenannter_Verlauf_33-5);}.cls-7{stroke:url(#Unbenannter_Verlauf_33-6);}.cls-8{stroke:url(#Unbenannter_Verlauf_33-7);}.cls-9{stroke:url(#Unbenannter_Verlauf_33-8);}.cls-10{stroke:url(#Unbenannter_Verlauf_33-9);}</style><linearGradient id="Unbenannter_Verlauf_21" x1="339.52" y1="30.29" x2="113.15" y2="422.38" gradientUnits="userSpaceOnUse"><stop offset="0" stop-color="#6ac6e0"/><stop offset="0.52" stop-color="#5bb7df"/><stop offset="1" stop-color="#49a5dd"/></linearGradient><linearGradient id="Unbenannter_Verlauf_33" x1="317.54" y1="68.9" x2="135.12" y2="384.85" gradientUnits="userSpaceOnUse"><stop offset="0" stop-color="#fff"/><stop offset="1" stop-color="#fff"/></linearGradient><linearGradient id="Unbenannter_Verlauf_33-2" x1="181.13" y1="106.93" x2="160.99" y2="141.8" xlink:href="#Unbenannter_Verlauf_33"/><linearGradient id="Unbenannter_Verlauf_33-3" x1="181.13" y1="303.98" x2="160.99" y2="338.85" xlink:href="#Unbenannter_Verlauf_33"/><linearGradient id="Unbenannter_Verlauf_33-4" x1="181.13" y1="173.32" x2="160.99" y2="208.18" xlink:href="#Unbenannter_Verlauf_33"/><linearGradient id="Unbenannter_Verlauf_33-5" x1="183.29" y1="230.84" x2="160.28" y2="270.69" xlink:href="#Unbenannter_Verlauf_33"/><linearGradient id="Unbenannter_Verlauf_33-6" x1="270.24" y1="99.66" x2="241.71" y2="149.07" xlink:href="#Unbenannter_Verlauf_33"/><linearGradient id="Unbenannter_Verlauf_33-7" x1="270.24" y1="166.04" x2="241.71" y2="215.45" xlink:href="#Unbenannter_Verlauf_33"/><linearGradient id="Unbenannter_Verlauf_33-8" x1="270.24" y1="230.48" x2="241.71" y2="279.89" xlink:href="#Unbenannter_Verlauf_33"/><linearGradient id="Unbenannter_Verlauf_33-9" x1="270.24" y1="296.71" x2="241.71" y2="346.12" xlink:href="#Unbenannter_Verlauf_33"/></defs><title>survey_bot_icon</title><g id="Ebene_2" data-name="Ebene 2"><circle class="cls-1" cx="226.33" cy="226.33" r="226.33"/></g><g id="Ebene_1" data-name="Ebene 1"><rect class="cls-2" x="124.11" y="75.95" width="204.45" height="301.86" rx="12" ry="12"/><circle class="cls-3" cx="171.06" cy="124.37" r="15.13"/><circle class="cls-4" cx="171.06" cy="321.41" r="15.13"/><circle class="cls-5" cx="171.06" cy="190.75" r="15.13"/><polyline class="cls-6" points="153.32 255.43 166.25 268.37 192.62 242"/><line class="cls-7" x1="208.92" y1="124.37" x2="303.03" y2="124.37"/><line class="cls-8" x1="208.92" y1="190.75" x2="303.03" y2="190.75"/><line class="cls-9" x1="208.92" y1="255.18" x2="303.03" y2="255.18"/><line class="cls-10" x1="208.92" y1="321.41" x2="303.03" y2="321.41"/></g></svg>